<svg width="444" height="121" viewBox="0 0 444 121" fill="none" xmlns="http://www.w3.org/2000/svg">
<path fill-rule="evenodd" clip-rule="evenodd" d="M111.21 57.2749L104.836 82.7715C103.035 89.9758 98.4458 96.1696 92.078 99.9903L81.9684 106.056C75.6006 109.877 67.9758 111.011 60.7715 109.21L35.2749 102.836C28.0705 101.035 21.8767 96.4458 18.0561 90.078L11.9903 79.9684C8.16961 73.6006 7.03501 65.9758 8.83609 58.7715L15.2102 33.2749C17.0113 26.0705 21.6006 19.8767 27.9684 16.0561L38.078 9.99028C44.4458 6.16961 52.0705 5.03501 59.2749 6.83609L84.7715 13.2102C91.9758 15.0113 98.1696 19.6006 101.99 25.9684L108.056 36.078C111.877 42.4458 113.011 50.0705 111.21 57.2749ZM51.9038 38.9934L76.1427 45.0531C78.2859 45.5889 79.5889 47.7606 79.0531 49.9038L72.9934 74.1427C72.4576 76.2859 70.2859 77.5889 68.1427 77.0531L43.9038 70.9934C41.7606 70.4576 40.4576 68.2859 40.9934 66.1427L47.0531 41.9038C47.5889 39.7606 49.7606 38.4576 51.9038 38.9934Z" fill="url(#paint0_linear_1_32)" style=""/>
<path fill-rule="evenodd" clip-rule="evenodd" d="M10.0232 54.0232L14.0232 38.0232L46.0232 46.0232L44.0232 54.0232L42.0232 62.0232L10.0232 54.0232ZM56.0235 108.023L40.0235 104.023L48.0235 72.0232L56.0235 74.0232L64.0235 76.0232L56.0235 108.023ZM110.023 62.0232L106.023 78.0232L74.0232 70.0232L76.0232 62.0232L78.0232 54.0232L110.023 62.0232ZM80.0235 12.0232L72.0235 44.0232L64.0235 42.0232L56.0235 40.0232L64.0235 8.02319L80.0235 12.0232Z" fill="url(#paint1_linear_1_32)" style=""/>
<mask id="path-3-outside-1_1_32" maskUnits="userSpaceOnUse" x="140.023" y="18.0232" width="304" height="90" fill="black">
<rect fill="white" x="140.023" y="18.0232" width="304" height="90"/>
<path d="M187.991 33.1592C189.399 33.1592 190.551 33.6392 191.447 34.5992C192.343 35.4952 192.791 36.6472 192.791 38.0552V79.5272C192.791 80.9352 192.343 82.1192 191.447 83.0792C190.551 83.9752 189.399 84.4232 187.991 84.4232C186.647 84.4232 185.495 83.9752 184.535 83.0792C183.639 82.1192 183.191 80.9352 183.191 79.5272V72.6152L185.207 72.9032C185.207 74.0552 184.727 75.3352 183.767 76.7432C182.871 78.1512 181.623 79.5272 180.023 80.8712C178.423 82.1512 176.535 83.2392 174.359 84.1352C172.183 84.9672 169.847 85.3832 167.351 85.3832C162.935 85.3832 158.967 84.2632 155.447 82.0232C151.927 79.7192 149.143 76.5832 147.095 72.6152C145.047 68.6472 144.023 64.1352 144.023 59.0792C144.023 53.8952 145.047 49.3512 147.095 45.4472C149.143 41.4792 151.895 38.3752 155.351 36.1352C158.871 33.8952 162.775 32.7752 167.063 32.7752C169.815 32.7752 172.343 33.2232 174.647 34.1192C177.015 35.0152 179.063 36.1672 180.791 37.5752C182.519 38.9832 183.831 40.4872 184.727 42.0872C185.687 43.6232 186.167 45.0952 186.167 46.5032L183.191 46.7912V38.0552C183.191 36.7112 183.639 35.5592 184.535 34.5992C185.495 33.6392 186.647 33.1592 187.991 33.1592ZM168.407 76.5512C171.415 76.5512 174.071 75.7832 176.375 74.2472C178.679 72.7112 180.471 70.6312 181.751 68.0072C183.031 65.3192 183.671 62.3432 183.671 59.0792C183.671 55.7512 183.031 52.7752 181.751 50.1512C180.471 47.5272 178.679 45.4472 176.375 43.9112C174.071 42.3752 171.415 41.6072 168.407 41.6072C165.463 41.6072 162.839 42.3752 160.535 43.9112C158.295 45.4472 156.503 47.5272 155.159 50.1512C153.879 52.7752 153.239 55.7512 153.239 59.0792C153.239 62.3432 153.879 65.3192 155.159 68.0072C156.503 70.6312 158.295 72.7112 160.535 74.2472C162.839 75.7832 165.463 76.5512 168.407 76.5512ZM242.935 33.9272C244.279 33.9272 245.399 34.4072 246.295 35.3672C247.255 36.2632 247.735 37.4152 247.735 38.8232V64.0712C247.735 70.7272 245.879 75.9432 242.167 79.7192C238.455 83.4312 233.207 85.2872 226.423 85.2872C219.703 85.2872 214.487 83.4312 210.775 79.7192C207.127 75.9432 205.303 70.7272 205.303 64.0712V38.8232C205.303 37.4152 205.751 36.2632 206.647 35.3672C207.543 34.4072 208.695 33.9272 210.103 33.9272C211.447 33.9272 212.567 34.4072 213.463 35.3672C214.423 36.2632 214.903 37.4152 214.903 38.8232V64.0712C214.903 68.2312 215.863 71.3352 217.783 73.3832C219.767 75.4312 222.647 76.4552 226.423 76.4552C230.263 76.4552 233.175 75.4312 235.159 73.3832C237.143 71.3352 238.135 68.2312 238.135 64.0712V38.8232C238.135 37.4152 238.583 36.2632 239.479 35.3672C240.375 34.4072 241.527 33.9272 242.935 33.9272ZM260.412 34.5032H282.972C284.252 34.5032 285.308 34.9512 286.14 35.8472C287.036 36.6792 287.484 37.7352 287.484 39.0152C287.484 40.2312 287.036 41.2552 286.14 42.0872C285.308 42.9192 284.252 43.3352 282.972 43.3352H260.412C259.132 43.3352 258.044 42.9192 257.148 42.0872C256.316 41.1912 255.9 40.1352 255.9 38.9192C255.9 37.6392 256.316 36.5832 257.148 35.7512C258.044 34.9192 259.132 34.5032 260.412 34.5032ZM270.492 22.0232C271.9 22.0232 273.052 22.5032 273.948 23.4632C274.844 24.3592 275.292 25.5112 275.292 26.9192V71.4632C275.292 72.6152 275.484 73.5432 275.868 74.2472C276.252 74.9512 276.764 75.4312 277.404 75.6872C278.108 75.9432 278.812 76.0712 279.516 76.0712C280.22 76.0712 280.828 75.9432 281.34 75.6872C281.916 75.4312 282.588 75.3032 283.356 75.3032C284.124 75.3032 284.828 75.6552 285.468 76.3592C286.108 77.0632 286.428 78.0232 286.428 79.2392C286.428 80.7752 285.596 82.0232 283.932 82.9832C282.268 83.9432 280.476 84.4232 278.556 84.4232C277.468 84.4232 276.188 84.3272 274.716 84.1352C273.244 83.9432 271.804 83.4632 270.396 82.6952C269.052 81.9272 267.932 80.7112 267.036 79.0472C266.14 77.3192 265.692 74.9192 265.692 71.8472V26.9192C265.692 25.5112 266.14 24.3592 267.036 23.4632C267.996 22.5032 269.148 22.0232 270.492 22.0232ZM323.555 33.0632C328.035 33.0632 332.003 34.1832 335.459 36.4232C338.979 38.6632 341.763 41.7352 343.811 45.6392C345.859 49.4792 346.883 53.9592 346.883 59.0792C346.883 64.1992 345.859 68.7432 343.811 72.7112C341.763 76.6152 339.011 79.6872 335.555 81.9272C332.099 84.1672 328.195 85.2872 323.843 85.2872C321.411 85.2872 319.107 84.9032 316.931 84.1352C314.755 83.3672 312.835 82.3752 311.171 81.1592C309.507 79.8792 308.131 78.5352 307.043 77.1272C306.019 75.7192 305.379 74.4072 305.123 73.1912L307.715 71.9432V98.7272C307.715 100.135 307.235 101.287 306.275 102.183C305.379 103.143 304.259 103.623 302.915 103.623C301.507 103.623 300.355 103.143 299.459 102.183C298.563 101.287 298.115 100.135 298.115 98.7272V38.6312C298.115 37.2872 298.563 36.1352 299.459 35.1752C300.355 34.2152 301.507 33.7352 302.915 33.7352C304.259 33.7352 305.379 34.2152 306.275 35.1752C307.235 36.1352 307.715 37.2872 307.715 38.6312V45.2552L306.179 44.3912C306.371 43.1752 306.979 41.9272 308.003 40.6472C309.027 39.3032 310.307 38.0552 311.843 36.9032C313.443 35.7512 315.235 34.8232 317.219 34.1192C319.267 33.4152 321.379 33.0632 323.555 33.0632ZM322.499 41.8952C319.427 41.8952 316.739 42.6632 314.435 44.1992C312.195 45.6712 310.435 47.6872 309.155 50.2472C307.875 52.8072 307.235 55.7512 307.235 59.0792C307.235 62.3432 307.875 65.3192 309.155 68.0072C310.435 70.6312 312.195 72.7112 314.435 74.2472C316.739 75.7192 319.427 76.4552 322.499 76.4552C325.507 76.4552 328.131 75.7192 330.371 74.2472C332.611 72.7112 334.371 70.6312 335.651 68.0072C336.995 65.3192 337.667 62.3432 337.667 59.0792C337.667 55.8152 336.995 52.9032 335.651 50.3432C334.371 47.7192 332.611 45.6712 330.371 44.1992C328.131 42.6632 325.507 41.8952 322.499 41.8952ZM395.372 33.9272C396.716 33.9272 397.836 34.4072 398.732 35.3672C399.692 36.2632 400.172 37.4152 400.172 38.8232V64.0712C400.172 70.7272 398.316 75.9432 394.604 79.7192C390.892 83.4312 385.644 85.2872 378.86 85.2872C372.14 85.2872 366.924 83.4312 363.212 79.7192C359.564 75.9432 357.74 70.7272 357.74 64.0712V38.8232C357.74 37.4152 358.188 36.2632 359.084 35.3672C359.98 34.4072 361.132 33.9272 362.54 33.9272C363.884 33.9272 365.004 34.4072 365.9 35.3672C366.86 36.2632 367.34 37.4152 367.34 38.8232V64.0712C367.34 68.2312 368.3 71.3352 370.22 73.3832C372.204 75.4312 375.084 76.4552 378.86 76.4552C382.7 76.4552 385.612 75.4312 387.596 73.3832C389.58 71.3352 390.572 68.2312 390.572 64.0712V38.8232C390.572 37.4152 391.02 36.2632 391.916 35.3672C392.812 34.4072 393.964 33.9272 395.372 33.9272ZM412.849 34.5032H435.409C436.689 34.5032 437.745 34.9512 438.577 35.8472C439.473 36.6792 439.921 37.7352 439.921 39.0152C439.921 40.2312 439.473 41.2552 438.577 42.0872C437.745 42.9192 436.689 43.3352 435.409 43.3352H412.849C411.569 43.3352 410.481 42.9192 409.585 42.0872C408.753 41.1912 408.337 40.1352 408.337 38.9192C408.337 37.6392 408.753 36.5832 409.585 35.7512C410.481 34.9192 411.569 34.5032 412.849 34.5032ZM422.929 22.0232C424.337 22.0232 425.489 22.5032 426.385 23.4632C427.281 24.3592 427.729 25.5112 427.729 26.9192V71.4632C427.729 72.6152 427.921 73.5432 428.305 74.2472C428.689 74.9512 429.201 75.4312 429.841 75.6872C430.545 75.9432 431.249 76.0712 431.953 76.0712C432.657 76.0712 433.265 75.9432 433.777 75.6872C434.353 75.4312 435.025 75.3032 435.793 75.3032C436.561 75.3032 437.265 75.6552 437.905 76.3592C438.545 77.0632 438.865 78.0232 438.865 79.2392C438.865 80.7752 438.033 82.0232 436.369 82.9832C434.705 83.9432 432.913 84.4232 430.993 84.4232C429.905 84.4232 428.625 84.3272 427.153 84.1352C425.681 83.9432 424.241 83.4632 422.833 82.6952C421.489 81.9272 420.369 80.7112 419.473 79.0472C418.577 77.3192 418.129 74.9192 418.129 71.8472V26.9192C418.129 25.5112 418.577 24.3592 419.473 23.4632C420.433 22.5032 421.585 22.0232 422.929 22.0232Z"/>
</mask>
<path d="M187.991 33.1592C189.399 33.1592 190.551 33.6392 191.447 34.5992C192.343 35.4952 192.791 36.6472 192.791 38.0552V79.5272C192.791 80.9352 192.343 82.1192 191.447 83.0792C190.551 83.9752 189.399 84.4232 187.991 84.4232C186.647 84.4232 185.495 83.9752 184.535 83.0792C183.639 82.1192 183.191 80.9352 183.191 79.5272V72.6152L185.207 72.9032C185.207 74.0552 184.727 75.3352 183.767 76.7432C182.871 78.1512 181.623 79.5272 180.023 80.8712C178.423 82.1512 176.535 83.2392 174.359 84.1352C172.183 84.9672 169.847 85.3832 167.351 85.3832C162.935 85.3832 158.967 84.2632 155.447 82.0232C151.927 79.7192 149.143 76.5832 147.095 72.6152C145.047 68.6472 144.023 64.1352 144.023 59.0792C144.023 53.8952 145.047 49.3512 147.095 45.4472C149.143 41.4792 151.895 38.3752 155.351 36.1352C158.871 33.8952 162.775 32.7752 167.063 32.7752C169.815 32.7752 172.343 33.2232 174.647 34.1192C177.015 35.0152 179.063 36.1672 180.791 37.5752C182.519 38.9832 183.831 40.4872 184.727 42.0872C185.687 43.6232 186.167 45.0952 186.167 46.5032L183.191 46.7912V38.0552C183.191 36.7112 183.639 35.5592 184.535 34.5992C185.495 33.6392 186.647 33.1592 187.991 33.1592ZM168.407 76.5512C171.415 76.5512 174.071 75.7832 176.375 74.2472C178.679 72.7112 180.471 70.6312 181.751 68.0072C183.031 65.3192 183.671 62.3432 183.671 59.0792C183.671 55.7512 183.031 52.7752 181.751 50.1512C180.471 47.5272 178.679 45.4472 176.375 43.9112C174.071 42.3752 171.415 41.6072 168.407 41.6072C165.463 41.6072 162.839 42.3752 160.535 43.9112C158.295 45.4472 156.503 47.5272 155.159 50.1512C153.879 52.7752 153.239 55.7512 153.239 59.0792C153.239 62.3432 153.879 65.3192 155.159 68.0072C156.503 70.6312 158.295 72.7112 160.535 74.2472C162.839 75.7832 165.463 76.5512 168.407 76.5512ZM242.935 33.9272C244.279 33.9272 245.399 34.4072 246.295 35.3672C247.255 36.2632 247.735 37.4152 247.735 38.8232V64.0712C247.735 70.7272 245.879 75.9432 242.167 79.7192C238.455 83.4312 233.207 85.2872 226.423 85.2872C219.703 85.2872 214.487 83.4312 210.775 79.7192C207.127 75.9432 205.303 70.7272 205.303 64.0712V38.8232C205.303 37.4152 205.751 36.2632 206.647 35.3672C207.543 34.4072 208.695 33.9272 210.103 33.9272C211.447 33.9272 212.567 34.4072 213.463 35.3672C214.423 36.2632 214.903 37.4152 214.903 38.8232V64.0712C214.903 68.2312 215.863 71.3352 217.783 73.3832C219.767 75.4312 222.647 76.4552 226.423 76.4552C230.263 76.4552 233.175 75.4312 235.159 73.3832C237.143 71.3352 238.135 68.2312 238.135 64.0712V38.8232C238.135 37.4152 238.583 36.2632 239.479 35.3672C240.375 34.4072 241.527 33.9272 242.935 33.9272ZM260.412 34.5032H282.972C284.252 34.5032 285.308 34.9512 286.14 35.8472C287.036 36.6792 287.484 37.7352 287.484 39.0152C287.484 40.2312 287.036 41.2552 286.14 42.0872C285.308 42.9192 284.252 43.3352 282.972 43.3352H260.412C259.132 43.3352 258.044 42.9192 257.148 42.0872C256.316 41.1912 255.9 40.1352 255.9 38.9192C255.9 37.6392 256.316 36.5832 257.148 35.7512C258.044 34.9192 259.132 34.5032 260.412 34.5032ZM270.492 22.0232C271.9 22.0232 273.052 22.5032 273.948 23.4632C274.844 24.3592 275.292 25.5112 275.292 26.9192V71.4632C275.292 72.6152 275.484 73.5432 275.868 74.2472C276.252 74.9512 276.764 75.4312 277.404 75.6872C278.108 75.9432 278.812 76.0712 279.516 76.0712C280.22 76.0712 280.828 75.9432 281.34 75.6872C281.916 75.4312 282.588 75.3032 283.356 75.3032C284.124 75.3032 284.828 75.6552 285.468 76.3592C286.108 77.0632 286.428 78.0232 286.428 79.2392C286.428 80.7752 285.596 82.0232 283.932 82.9832C282.268 83.9432 280.476 84.4232 278.556 84.4232C277.468 84.4232 276.188 84.3272 274.716 84.1352C273.244 83.9432 271.804 83.4632 270.396 82.6952C269.052 81.9272 267.932 80.7112 267.036 79.0472C266.14 77.3192 265.692 74.9192 265.692 71.8472V26.9192C265.692 25.5112 266.14 24.3592 267.036 23.4632C267.996 22.5032 269.148 22.0232 270.492 22.0232ZM323.555 33.0632C328.035 33.0632 332.003 34.1832 335.459 36.4232C338.979 38.6632 341.763 41.7352 343.811 45.6392C345.859 49.4792 346.883 53.9592 346.883 59.0792C346.883 64.1992 345.859 68.7432 343.811 72.7112C341.763 76.6152 339.011 79.6872 335.555 81.9272C332.099 84.1672 328.195 85.2872 323.843 85.2872C321.411 85.2872 319.107 84.9032 316.931 84.1352C314.755 83.3672 312.835 82.3752 311.171 81.1592C309.507 79.8792 308.131 78.5352 307.043 77.1272C306.019 75.7192 305.379 74.4072 305.123 73.1912L307.715 71.9432V98.7272C307.715 100.135 307.235 101.287 306.275 102.183C305.379 103.143 304.259 103.623 302.915 103.623C301.507 103.623 300.355 103.143 299.459 102.183C298.563 101.287 298.115 100.135 298.115 98.7272V38.6312C298.115 37.2872 298.563 36.1352 299.459 35.1752C300.355 34.2152 301.507 33.7352 302.915 33.7352C304.259 33.7352 305.379 34.2152 306.275 35.1752C307.235 36.1352 307.715 37.2872 307.715 38.6312V45.2552L306.179 44.3912C306.371 43.1752 306.979 41.9272 308.003 40.6472C309.027 39.3032 310.307 38.0552 311.843 36.9032C313.443 35.7512 315.235 34.8232 317.219 34.1192C319.267 33.4152 321.379 33.0632 323.555 33.0632ZM322.499 41.8952C319.427 41.8952 316.739 42.6632 314.435 44.1992C312.195 45.6712 310.435 47.6872 309.155 50.2472C307.875 52.8072 307.235 55.7512 307.235 59.0792C307.235 62.3432 307.875 65.3192 309.155 68.0072C310.435 70.6312 312.195 72.7112 314.435 74.2472C316.739 75.7192 319.427 76.4552 322.499 76.4552C325.507 76.4552 328.131 75.7192 330.371 74.2472C332.611 72.7112 334.371 70.6312 335.651 68.0072C336.995 65.3192 337.667 62.3432 337.667 59.0792C337.667 55.8152 336.995 52.9032 335.651 50.3432C334.371 47.7192 332.611 45.6712 330.371 44.1992C328.131 42.6632 325.507 41.8952 322.499 41.8952ZM395.372 33.9272C396.716 33.9272 397.836 34.4072 398.732 35.3672C399.692 36.2632 400.172 37.4152 400.172 38.8232V64.0712C400.172 70.7272 398.316 75.9432 394.604 79.7192C390.892 83.4312 385.644 85.2872 378.86 85.2872C372.14 85.2872 366.924 83.4312 363.212 79.7192C359.564 75.9432 357.74 70.7272 357.74 64.0712V38.8232C357.74 37.4152 358.188 36.2632 359.084 35.3672C359.98 34.4072 361.132 33.9272 362.54 33.9272C363.884 33.9272 365.004 34.4072 365.9 35.3672C366.86 36.2632 367.34 37.4152 367.34 38.8232V64.0712C367.34 68.2312 368.3 71.3352 370.22 73.3832C372.204 75.4312 375.084 76.4552 378.86 76.4552C382.7 76.4552 385.612 75.4312 387.596 73.3832C389.58 71.3352 390.572 68.2312 390.572 64.0712V38.8232C390.572 37.4152 391.02 36.2632 391.916 35.3672C392.812 34.4072 393.964 33.9272 395.372 33.9272ZM412.849 34.5032H435.409C436.689 34.5032 437.745 34.9512 438.577 35.8472C439.473 36.6792 439.921 37.7352 439.921 39.0152C439.921 40.2312 439.473 41.2552 438.577 42.0872C437.745 42.9192 436.689 43.3352 435.409 43.3352H412.849C411.569 43.3352 410.481 42.9192 409.585 42.0872C408.753 41.1912 408.337 40.1352 408.337 38.9192C408.337 37.6392 408.753 36.5832 409.585 35.7512C410.481 34.9192 411.569 34.5032 412.849 34.5032ZM422.929 22.0232C424.337 22.0232 425.489 22.5032 426.385 23.4632C427.281 24.3592 427.729 25.5112 427.729 26.9192V71.4632C427.729 72.6152 427.921 73.5432 428.305 74.2472C428.689 74.9512 429.201 75.4312 429.841 75.6872C430.545 75.9432 431.249 76.0712 431.953 76.0712C432.657 76.0712 433.265 75.9432 433.777 75.6872C434.353 75.4312 435.025 75.3032 435.793 75.3032C436.561 75.3032 437.265 75.6552 437.905 76.3592C438.545 77.0632 438.865 78.0232 438.865 79.2392C438.865 80.7752 438.033 82.0232 436.369 82.9832C434.705 83.9432 432.913 84.4232 430.993 84.4232C429.905 84.4232 428.625 84.3272 427.153 84.1352C425.681 83.9432 424.241 83.4632 422.833 82.6952C421.489 81.9272 420.369 80.7112 419.473 79.0472C418.577 77.3192 418.129 74.9192 418.129 71.8472V26.9192C418.129 25.5112 418.577 24.3592 419.473 23.4632C420.433 22.5032 421.585 22.0232 422.929 22.0232Z" fill="#EB5502" style="fill:#EB5502;fill:color(display-p3 0.9216 0.3333 0.0078);fill-opacity:1;"/>
<path d="M191.447 34.5992L188.523 37.3285L188.57 37.3789L188.619 37.4276L191.447 34.5992ZM191.447 83.0792L194.276 85.9076L194.324 85.8589L194.371 85.8085L191.447 83.0792ZM184.535 83.0792L181.611 85.8085L181.705 85.9093L181.806 86.0034L184.535 83.0792ZM183.191 72.6152L183.757 68.6554L179.191 68.0032V72.6152H183.191ZM185.207 72.9032H189.207V69.434L185.773 68.9434L185.207 72.9032ZM183.767 76.7432L180.462 74.4898L180.427 74.5422L180.393 74.5957L183.767 76.7432ZM180.023 80.8712L182.522 83.9947L182.559 83.9648L182.596 83.934L180.023 80.8712ZM174.359 84.1352L175.788 87.8714L175.835 87.8533L175.882 87.8339L174.359 84.1352ZM155.447 82.0232L153.257 85.37L153.278 85.3841L153.3 85.3978L155.447 82.0232ZM147.095 72.6152L143.541 74.4498L143.541 74.4498L147.095 72.6152ZM147.095 45.4472L150.637 47.3054L150.644 47.2936L150.65 47.2818L147.095 45.4472ZM155.351 36.1352L153.204 32.7605L153.19 32.7695L153.176 32.7786L155.351 36.1352ZM174.647 34.1192L173.197 37.8472L173.214 37.8539L173.232 37.8603L174.647 34.1192ZM180.791 37.5752L183.318 34.4743L183.318 34.4743L180.791 37.5752ZM184.727 42.0872L181.237 44.0416L181.284 44.1256L181.335 44.2072L184.727 42.0872ZM186.167 46.5032L186.552 50.4846L190.167 50.1348V46.5032H186.167ZM183.191 46.7912H179.191V51.197L183.576 50.7726L183.191 46.7912ZM184.535 34.5992L181.707 31.7708L181.658 31.8195L181.611 31.8699L184.535 34.5992ZM176.375 74.2472L178.594 77.5754L178.594 77.5754L176.375 74.2472ZM181.751 68.0072L185.346 69.7609L185.355 69.744L185.363 69.7269L181.751 68.0072ZM176.375 43.9112L178.594 40.583L178.594 40.583L176.375 43.9112ZM160.535 43.9112L158.316 40.583L158.295 40.5975L158.273 40.6123L160.535 43.9112ZM155.159 50.1512L151.599 48.3277L151.581 48.3624L151.564 48.3975L155.159 50.1512ZM155.159 68.0072L151.548 69.7269L151.573 69.7792L151.599 69.8307L155.159 68.0072ZM160.535 74.2472L158.273 77.5461L158.295 77.5609L158.316 77.5754L160.535 74.2472ZM246.295 35.3672L243.37 38.0965L243.465 38.1973L243.565 38.2914L246.295 35.3672ZM242.167 79.7192L244.995 82.5476L245.007 82.5355L245.019 82.5233L242.167 79.7192ZM210.775 79.7192L207.898 82.4984L207.922 82.5232L207.946 82.5476L210.775 79.7192ZM206.647 35.3672L209.475 38.1956L209.524 38.1469L209.571 38.0965L206.647 35.3672ZM213.463 35.3672L210.538 38.0965L210.633 38.1973L210.733 38.2914L213.463 35.3672ZM217.783 73.3832L214.865 76.119L214.887 76.1429L214.91 76.1664L217.783 73.3832ZM235.159 73.3832L232.286 70.6L232.286 70.6L235.159 73.3832ZM239.479 35.3672L242.307 38.1956L242.356 38.1469L242.403 38.0965L239.479 35.3672ZM286.14 35.8472L283.209 38.569L283.31 38.6776L283.418 38.7784L286.14 35.8472ZM286.14 42.0872L283.418 39.156L283.364 39.2064L283.312 39.2588L286.14 42.0872ZM257.148 42.0872L254.217 44.809L254.318 44.9176L254.426 45.0184L257.148 42.0872ZM257.148 35.7512L254.426 32.82L254.372 32.8704L254.32 32.9228L257.148 35.7512ZM273.948 23.4632L271.024 26.1925L271.071 26.2429L271.12 26.2916L273.948 23.4632ZM277.404 75.6872L275.918 79.4011L275.977 79.4247L276.037 79.4464L277.404 75.6872ZM281.34 75.6872L279.715 72.0319L279.632 72.0689L279.551 72.1095L281.34 75.6872ZM285.468 76.3592L282.508 79.0499L282.508 79.0499L285.468 76.3592ZM283.932 82.9832L285.931 86.4479L285.931 86.4479L283.932 82.9832ZM270.396 82.6952L268.411 86.1682L268.446 86.1878L268.481 86.2068L270.396 82.6952ZM267.036 79.0472L263.485 80.8885L263.499 80.9161L263.514 80.9436L267.036 79.0472ZM267.036 23.4632L264.208 20.6348L264.208 20.6348L267.036 23.4632ZM335.459 36.4232L333.284 39.7798L333.298 39.7889L333.312 39.7978L335.459 36.4232ZM343.811 45.6392L340.269 47.4974L340.275 47.5095L340.282 47.5215L343.811 45.6392ZM343.811 72.7112L347.353 74.5694L347.36 74.5576L347.366 74.5458L343.811 72.7112ZM335.555 81.9272L337.731 85.2838L337.731 85.2838L335.555 81.9272ZM316.931 84.1352L315.6 87.9072L315.6 87.9072L316.931 84.1352ZM311.171 81.1592L308.732 84.3297L308.771 84.3597L308.811 84.3888L311.171 81.1592ZM307.043 77.1272L303.808 79.4799L303.842 79.5269L303.878 79.573L307.043 77.1272ZM305.123 73.1912L303.388 69.5872L300.563 70.9473L301.209 74.0152L305.123 73.1912ZM307.715 71.9432H311.715V65.5778L305.98 68.3392L307.715 71.9432ZM306.275 102.183L303.546 99.259L303.445 99.3531L303.351 99.4539L306.275 102.183ZM299.459 102.183L302.383 99.4539L302.336 99.4035L302.288 99.3548L299.459 102.183ZM299.459 35.1752L302.383 37.9045L302.383 37.9045L299.459 35.1752ZM306.275 35.1752L303.351 37.9045L303.398 37.9549L303.447 38.0036L306.275 35.1752ZM307.715 45.2552L305.754 48.7415L311.715 52.0946V45.2552H307.715ZM306.179 44.3912L302.228 43.7673L301.794 46.5142L304.218 47.8775L306.179 44.3912ZM308.003 40.6472L311.127 43.146L311.156 43.109L311.185 43.0714L308.003 40.6472ZM311.843 36.9032L309.506 33.6571L309.474 33.6798L309.443 33.7032L311.843 36.9032ZM317.219 34.1192L315.919 30.3364L315.9 30.3429L315.882 30.3495L317.219 34.1192ZM314.435 44.1992L316.632 47.542L316.643 47.5347L316.654 47.5274L314.435 44.1992ZM309.155 68.0072L305.544 69.7269L305.552 69.7439L305.56 69.7609L309.155 68.0072ZM314.435 74.2472L312.173 77.5461L312.227 77.5829L312.282 77.618L314.435 74.2472ZM330.371 74.2472L332.568 77.59L332.601 77.5684L332.633 77.5461L330.371 74.2472ZM335.651 68.0072L332.073 66.2183L332.065 66.2359L332.056 66.2535L335.651 68.0072ZM335.651 50.3432L332.056 52.0969L332.082 52.1501L332.11 52.2025L335.651 50.3432ZM330.371 44.1992L328.109 47.4981L328.142 47.5204L328.174 47.542L330.371 44.1992ZM398.732 35.3672L395.808 38.0965L395.902 38.1973L396.003 38.2914L398.732 35.3672ZM394.604 79.7192L397.433 82.5476L397.445 82.5355L397.457 82.5233L394.604 79.7192ZM363.212 79.7192L360.335 82.4984L360.359 82.5232L360.384 82.5476L363.212 79.7192ZM359.084 35.3672L361.913 38.1956L361.961 38.1469L362.008 38.0965L359.084 35.3672ZM365.9 35.3672L362.976 38.0965L363.07 38.1973L363.171 38.2914L365.9 35.3672ZM370.22 73.3832L367.302 76.119L367.324 76.1429L367.347 76.1664L370.22 73.3832ZM387.596 73.3832L384.723 70.6L384.723 70.6L387.596 73.3832ZM391.916 35.3672L394.745 38.1956L394.793 38.1469L394.84 38.0965L391.916 35.3672ZM438.577 35.8472L435.646 38.569L435.747 38.6776L435.856 38.7784L438.577 35.8472ZM438.577 42.0872L435.856 39.156L435.801 39.2064L435.749 39.2588L438.577 42.0872ZM409.585 42.0872L406.654 44.809L406.755 44.9176L406.864 45.0184L409.585 42.0872ZM409.585 35.7512L406.864 32.82L406.809 32.8704L406.757 32.9228L409.585 35.7512ZM426.385 23.4632L423.461 26.1925L423.508 26.2429L423.557 26.2916L426.385 23.4632ZM429.841 75.6872L428.356 79.4011L428.415 79.4247L428.474 79.4464L429.841 75.6872ZM433.777 75.6872L432.153 72.0319L432.07 72.0689L431.989 72.1095L433.777 75.6872ZM437.905 76.3592L434.946 79.0499L434.946 79.0499L437.905 76.3592ZM436.369 82.9832L438.368 86.4479L438.368 86.4479L436.369 82.9832ZM422.833 82.6952L420.849 86.1682L420.883 86.1878L420.918 86.2068L422.833 82.6952ZM419.473 79.0472L415.922 80.8885L415.937 80.9161L415.952 80.9436L419.473 79.0472ZM419.473 23.4632L416.645 20.6348L416.645 20.6348L419.473 23.4632ZM187.991 37.1592C188.235 37.1592 188.343 37.1991 188.373 37.2115C188.396 37.2213 188.442 37.2422 188.523 37.3285L194.371 31.8699C192.66 30.0361 190.418 29.1592 187.991 29.1592V37.1592ZM188.619 37.4276C188.678 37.4868 188.791 37.5789 188.791 38.0552H196.791C196.791 35.7155 196.008 33.5036 194.276 31.7708L188.619 37.4276ZM188.791 38.0552V79.5272H196.791V38.0552H188.791ZM188.791 79.5272C188.791 80.0021 188.675 80.1872 188.523 80.3499L194.371 85.8085C196.012 84.0512 196.791 81.8683 196.791 79.5272H188.791ZM188.619 80.2508C188.56 80.31 188.468 80.4232 187.991 80.4232V88.4232C190.331 88.4232 192.543 87.6404 194.276 85.9076L188.619 80.2508ZM187.991 80.4232C187.634 80.4232 187.465 80.3419 187.264 80.155L181.806 86.0034C183.526 87.6085 185.66 88.4232 187.991 88.4232V80.4232ZM187.459 80.3499C187.308 80.1872 187.191 80.0021 187.191 79.5272H179.191C179.191 81.8683 179.971 84.0512 181.611 85.8085L187.459 80.3499ZM187.191 79.5272V72.6152H179.191V79.5272H187.191ZM182.626 76.575L184.642 76.863L185.773 68.9434L183.757 68.6554L182.626 76.575ZM181.207 72.9032C181.207 72.9511 181.175 73.445 180.462 74.4898L187.072 78.9965C188.28 77.2254 189.207 75.1592 189.207 72.9032H181.207ZM180.393 74.5957C179.763 75.5855 178.813 76.6637 177.45 77.8084L182.596 83.934C184.433 82.3907 185.98 80.7169 187.142 78.8907L180.393 74.5957ZM177.524 77.7477C176.261 78.7585 174.712 79.664 172.836 80.4365L175.882 87.8339C178.358 86.8144 180.585 85.5439 182.522 83.9947L177.524 77.7477ZM172.931 80.399C171.242 81.0445 169.394 81.3832 167.351 81.3832V89.3832C170.3 89.3832 173.124 88.8899 175.788 87.8714L172.931 80.399ZM167.351 81.3832C163.649 81.3832 160.435 80.4558 157.595 78.6486L153.3 85.3978C157.5 88.0706 162.221 89.3832 167.351 89.3832V81.3832ZM157.638 78.6764C154.731 76.7737 152.401 74.1743 150.65 70.7806L143.541 74.4498C145.885 78.9921 149.123 82.6647 153.257 85.37L157.638 78.6764ZM150.65 70.7806C148.931 67.451 148.023 63.5821 148.023 59.0792H140.023C140.023 64.6883 141.163 69.8434 143.541 74.4498L150.65 70.7806ZM148.023 59.0792C148.023 54.4287 148.939 50.5432 150.637 47.3054L143.553 43.589C141.156 48.1592 140.023 53.3617 140.023 59.0792H148.023ZM150.65 47.2818C152.406 43.8788 154.704 41.3215 157.527 39.4918L153.176 32.7786C149.087 35.4288 145.88 39.0796 143.541 43.6126L150.65 47.2818ZM157.499 39.5098C160.358 37.6901 163.514 36.7752 167.063 36.7752V28.7752C162.037 28.7752 157.384 30.1003 153.204 32.7605L157.499 39.5098ZM167.063 36.7752C169.375 36.7752 171.405 37.1502 173.197 37.8472L176.097 30.3912C173.281 29.2962 170.255 28.7752 167.063 28.7752V36.7752ZM173.232 37.8603C175.251 38.6245 176.912 39.574 178.265 40.6761L183.318 34.4743C181.214 32.7603 178.779 31.4059 176.063 30.378L173.232 37.8603ZM178.265 40.6761C179.684 41.8327 180.634 42.9645 181.237 44.0416L188.217 40.1328C187.028 38.0098 185.355 36.1337 183.318 34.4743L178.265 40.6761ZM181.335 44.2072C182.01 45.287 182.167 46.0316 182.167 46.5032H190.167C190.167 44.1588 189.364 41.9594 188.119 39.9672L181.335 44.2072ZM185.782 42.5218L182.806 42.8098L183.576 50.7726L186.552 50.4846L185.782 42.5218ZM187.191 46.7912V38.0552H179.191V46.7912H187.191ZM187.191 38.0552C187.191 37.698 187.273 37.5287 187.459 37.3285L181.611 31.8699C180.006 33.5897 179.191 35.7244 179.191 38.0552H187.191ZM187.364 37.4276C187.582 37.2092 187.72 37.1592 187.991 37.1592V29.1592C185.574 29.1592 183.408 30.0692 181.707 31.7708L187.364 37.4276ZM168.407 80.5512C172.134 80.5512 175.576 79.5873 178.594 77.5754L174.156 70.919C172.566 71.979 170.697 72.5512 168.407 72.5512V80.5512ZM178.594 77.5754C181.521 75.6242 183.773 72.9864 185.346 69.7609L178.156 66.2535C177.17 68.276 175.838 69.7982 174.156 70.919L178.594 77.5754ZM185.363 69.7269C186.922 66.4516 187.671 62.8801 187.671 59.0792H179.671C179.671 61.8063 179.14 64.1867 178.14 66.2875L185.363 69.7269ZM187.671 59.0792C187.671 55.2288 186.928 51.6395 185.346 48.3975L178.156 51.9049C179.135 53.9108 179.671 56.2736 179.671 59.0792H187.671ZM185.346 48.3975C183.773 45.172 181.521 42.5342 178.594 40.583L174.156 47.2394C175.838 48.3602 177.17 49.8824 178.156 51.9049L185.346 48.3975ZM178.594 40.583C175.576 38.571 172.134 37.6072 168.407 37.6072V45.6072C170.697 45.6072 172.566 46.1793 174.156 47.2394L178.594 40.583ZM168.407 37.6072C164.726 37.6072 161.32 38.5807 158.316 40.583L162.754 47.2394C164.359 46.1697 166.2 45.6072 168.407 45.6072V37.6072ZM158.273 40.6123C155.438 42.5561 153.22 45.1635 151.599 48.3277L158.719 51.9747C159.787 49.8909 161.152 48.3382 162.797 47.2101L158.273 40.6123ZM151.564 48.3975C149.983 51.6395 149.239 55.2288 149.239 59.0792H157.239C157.239 56.2736 157.776 53.9108 158.754 51.9049L151.564 48.3975ZM149.239 59.0792C149.239 62.8801 149.988 66.4516 151.548 69.7269L158.771 66.2875C157.77 64.1867 157.239 61.8063 157.239 59.0792H149.239ZM151.599 69.8307C153.22 72.9949 155.438 75.6023 158.273 77.5461L162.797 70.9483C161.152 69.8201 159.787 68.2675 158.719 66.1837L151.599 69.8307ZM158.316 77.5754C161.32 79.5777 164.726 80.5512 168.407 80.5512V72.5512C166.2 72.5512 164.359 71.9887 162.754 70.919L158.316 77.5754ZM242.935 37.9272C243.121 37.9272 243.194 37.9582 243.207 37.9638C243.218 37.9685 243.272 37.9905 243.37 38.0965L249.219 32.6379C247.547 30.8461 245.358 29.9272 242.935 29.9272V37.9272ZM243.565 38.2914C243.652 38.3719 243.673 38.4181 243.682 38.4417C243.695 38.4715 243.735 38.5798 243.735 38.8232H251.735C251.735 36.3961 250.858 34.1545 249.024 32.443L243.565 38.2914ZM243.735 38.8232V64.0712H251.735V38.8232H243.735ZM243.735 64.0712C243.735 69.9617 242.113 74.0675 239.314 76.915L245.019 82.5233C249.644 77.8188 251.735 71.4927 251.735 64.0712H243.735ZM239.338 76.8908C236.578 79.651 232.47 81.2872 226.423 81.2872V89.2872C233.944 89.2872 240.331 87.2114 244.995 82.5476L239.338 76.8908ZM226.423 81.2872C220.452 81.2872 216.37 79.6579 213.603 76.8908L207.946 82.5476C212.603 87.2045 218.953 89.2872 226.423 89.2872V81.2872ZM213.651 76.9399C210.903 74.0953 209.303 69.9805 209.303 64.0712H201.303C201.303 71.4739 203.35 77.7911 207.898 82.4984L213.651 76.9399ZM209.303 64.0712V38.8232H201.303V64.0712H209.303ZM209.303 38.8232C209.303 38.3469 209.416 38.2548 209.475 38.1956L203.818 32.5388C202.085 34.2716 201.303 36.4835 201.303 38.8232H209.303ZM209.571 38.0965C209.651 38.0102 209.698 37.9893 209.721 37.9795C209.751 37.9671 209.859 37.9272 210.103 37.9272V29.9272C207.676 29.9272 205.434 30.8041 203.722 32.6379L209.571 38.0965ZM210.103 37.9272C210.289 37.9272 210.362 37.9582 210.375 37.9638C210.386 37.9685 210.44 37.9905 210.538 38.0965L216.387 32.6379C214.715 30.8461 212.526 29.9272 210.103 29.9272V37.9272ZM210.733 38.2914C210.82 38.3719 210.841 38.4181 210.85 38.4417C210.863 38.4715 210.903 38.5798 210.903 38.8232H218.903C218.903 36.3961 218.026 34.1545 216.192 32.443L210.733 38.2914ZM210.903 38.8232V64.0712H218.903V38.8232H210.903ZM210.903 64.0712C210.903 68.7658 211.978 73.0403 214.865 76.119L220.701 70.6474C219.747 69.6301 218.903 67.6966 218.903 64.0712H210.903ZM214.91 76.1664C217.868 79.2204 221.929 80.4552 226.423 80.4552V72.4552C223.364 72.4552 221.665 71.642 220.656 70.6L214.91 76.1664ZM226.423 80.4552C230.957 80.4552 235.061 79.2328 238.032 76.1664L232.286 70.6C231.288 71.6296 229.568 72.4552 226.423 72.4552V80.4552ZM238.032 76.1664C241.012 73.0898 242.135 68.796 242.135 64.0712H234.135C234.135 67.6664 233.273 69.5806 232.286 70.6L238.032 76.1664ZM242.135 64.0712V38.8232H234.135V64.0712H242.135ZM242.135 38.8232C242.135 38.3469 242.248 38.2548 242.307 38.1956L236.65 32.5388C234.917 34.2716 234.135 36.4835 234.135 38.8232H242.135ZM242.403 38.0965C242.483 38.0102 242.53 37.9893 242.553 37.9795C242.583 37.9671 242.691 37.9272 242.935 37.9272V29.9272C240.508 29.9272 238.266 30.8041 236.554 32.6379L242.403 38.0965ZM260.412 38.5032H282.972V30.5032H260.412V38.5032ZM282.972 38.5032C283.058 38.5032 283.111 38.5107 283.137 38.5156C283.161 38.5203 283.167 38.5239 283.162 38.5215C283.156 38.519 283.152 38.5164 283.154 38.5179C283.157 38.5197 283.176 38.5333 283.209 38.569L289.071 33.1254C287.443 31.3723 285.305 30.5032 282.972 30.5032V38.5032ZM283.418 38.7784C283.454 38.8115 283.467 38.8303 283.469 38.8329C283.471 38.8349 283.468 38.8312 283.466 38.8254C283.463 38.8199 283.467 38.8259 283.472 38.8506C283.476 38.8763 283.484 38.929 283.484 39.0152H291.484C291.484 36.6817 290.615 34.5439 288.862 32.916L283.418 38.7784ZM283.484 39.0152C283.484 39.0727 283.479 39.1011 283.478 39.1067C283.477 39.1115 283.478 39.1045 283.483 39.0919C283.489 39.0793 283.493 39.075 283.488 39.0812C283.483 39.0881 283.464 39.1139 283.418 39.156L288.862 45.0184C290.568 43.4343 291.484 41.3504 291.484 39.0152H283.484ZM283.312 39.2588C283.286 39.2843 283.271 39.2942 283.268 39.2963C283.265 39.2982 283.263 39.2994 283.258 39.3016C283.253 39.3036 283.174 39.3352 282.972 39.3352V47.3352C285.21 47.3352 287.317 46.5674 288.968 44.9156L283.312 39.2588ZM282.972 39.3352H260.412V47.3352H282.972V39.3352ZM260.412 39.3352C260.09 39.3352 259.989 39.2664 259.87 39.156L254.426 45.0184C256.099 46.572 258.174 47.3352 260.412 47.3352V39.3352ZM260.079 39.3654C259.93 39.2047 259.9 39.1194 259.9 38.9192H251.9C251.9 41.151 252.702 43.1777 254.217 44.809L260.079 39.3654ZM259.9 38.9192C259.9 38.7173 259.932 38.6385 259.934 38.6333C259.936 38.6278 259.937 38.6258 259.939 38.6229C259.941 38.6198 259.951 38.6052 259.976 38.5796L254.32 32.9228C252.668 34.5746 251.9 36.681 251.9 38.9192H259.9ZM259.87 38.6824C259.989 38.572 260.09 38.5032 260.412 38.5032V30.5032C258.174 30.5032 256.099 31.2664 254.426 32.82L259.87 38.6824ZM270.492 26.0232C270.735 26.0232 270.844 26.0631 270.873 26.0755C270.897 26.0853 270.943 26.1062 271.024 26.1925L276.872 20.7339C275.161 18.9001 272.919 18.0232 270.492 18.0232V26.0232ZM271.12 26.2916C271.179 26.3508 271.292 26.4429 271.292 26.9192H279.292C279.292 24.5795 278.509 22.3676 276.776 20.6348L271.12 26.2916ZM271.292 26.9192V71.4632H279.292V26.9192H271.292ZM271.292 71.4632C271.292 73.0108 271.542 74.6703 272.356 76.1626L279.38 72.3318C279.407 72.3823 279.383 72.3586 279.353 72.2128C279.322 72.0651 279.292 71.8229 279.292 71.4632H271.292ZM272.356 76.1626C273.109 77.5432 274.277 78.7445 275.918 79.4011L278.89 71.9733C279.041 72.0338 279.175 72.1226 279.276 72.217C279.371 72.3061 279.396 72.3628 279.38 72.3318L272.356 76.1626ZM276.037 79.4464C277.151 79.8514 278.317 80.0712 279.516 80.0712V72.0712C279.307 72.0712 279.065 72.035 278.771 71.928L276.037 79.4464ZM279.516 80.0712C280.701 80.0712 281.948 79.8552 283.129 79.2649L279.551 72.1095C279.587 72.0913 279.618 72.0791 279.641 72.0714C279.663 72.0637 279.675 72.0611 279.676 72.061C279.676 72.0609 279.664 72.0635 279.638 72.0661C279.611 72.0687 279.571 72.0712 279.516 72.0712V80.0712ZM282.964 79.3424C282.93 79.3577 283.028 79.3032 283.356 79.3032V71.3032C282.148 71.3032 280.902 71.5047 279.715 72.0319L282.964 79.3424ZM283.356 79.3032C283.103 79.3032 282.86 79.2395 282.671 79.1449C282.5 79.0592 282.453 78.9891 282.508 79.0499L288.428 73.6685C287.224 72.3449 285.511 71.3032 283.356 71.3032V79.3032ZM282.508 79.0499C282.474 79.012 282.445 78.9717 282.423 78.9341C282.402 78.8971 282.394 78.8737 282.393 78.8721C282.393 78.8715 282.428 78.9771 282.428 79.2392H290.428C290.428 77.3141 289.907 75.2961 288.428 73.6685L282.508 79.0499ZM282.428 79.2392C282.428 79.2575 282.426 79.2362 282.439 79.1918C282.453 79.1467 282.47 79.1164 282.476 79.1084C282.483 79.0973 282.377 79.2624 281.933 79.5185L285.931 86.4479C288.472 84.9822 290.428 82.5781 290.428 79.2392H282.428ZM281.933 79.5185C280.877 80.128 279.774 80.4232 278.556 80.4232V88.4232C281.178 88.4232 283.659 87.7584 285.931 86.4479L281.933 79.5185ZM278.556 80.4232C277.69 80.4232 276.591 80.3459 275.233 80.1688L274.199 88.1016C275.785 88.3085 277.246 88.4232 278.556 88.4232V80.4232ZM275.233 80.1688C274.29 80.0457 273.321 79.7341 272.311 79.1836L268.481 86.2068C270.287 87.1923 272.198 87.8407 274.199 88.1016L275.233 80.1688ZM272.381 79.2222C271.817 78.9 271.178 78.3018 270.558 77.1508L263.514 80.9436C264.686 83.1206 266.287 84.9544 268.411 86.1682L272.381 79.2222ZM270.587 77.2059C270.108 76.2832 269.692 74.6117 269.692 71.8472H261.692C261.692 75.2267 262.171 78.3552 263.485 80.8885L270.587 77.2059ZM269.692 71.8472V26.9192H261.692V71.8472H269.692ZM269.692 26.9192C269.692 26.4429 269.805 26.3508 269.864 26.2916L264.208 20.6348C262.475 22.3676 261.692 24.5795 261.692 26.9192H269.692ZM269.864 26.2916C270.083 26.0732 270.221 26.0232 270.492 26.0232V18.0232C268.075 18.0232 265.909 18.9332 264.208 20.6348L269.864 26.2916ZM323.555 37.0632C327.334 37.0632 330.532 37.9966 333.284 39.7798L337.635 33.0666C333.474 30.3698 328.737 29.0632 323.555 29.0632V37.0632ZM333.312 39.7978C336.209 41.6414 338.526 44.1756 340.269 47.4974L347.353 43.781C345 39.2948 341.75 35.685 337.607 33.0486L333.312 39.7978ZM340.282 47.5215C341.971 50.6879 342.883 54.4998 342.883 59.0792H350.883C350.883 53.4186 349.748 48.2705 347.341 43.7568L340.282 47.5215ZM342.883 59.0792C342.883 63.655 341.972 67.554 340.257 70.8766L347.366 74.5458C349.747 69.9324 350.883 64.7434 350.883 59.0792H342.883ZM340.269 70.853C338.517 74.1927 336.218 76.7306 333.38 78.5706L337.731 85.2838C341.804 82.6437 345.009 79.0377 347.353 74.5694L340.269 70.853ZM333.38 78.5706C330.609 80.3663 327.469 81.2872 323.843 81.2872V89.2872C328.921 89.2872 333.589 87.9681 337.731 85.2838L333.38 78.5706ZM323.843 81.2872C321.84 81.2872 319.988 80.9723 318.262 80.3632L315.6 87.9072C318.226 88.8341 320.982 89.2872 323.843 89.2872V81.2872ZM318.262 80.3632C316.411 79.7096 314.846 78.89 313.531 77.9296L308.811 84.3888C310.825 85.8603 313.1 87.0247 315.6 87.9072L318.262 80.3632ZM313.61 77.9887C312.171 76.8817 311.053 75.7741 310.208 74.6814L303.878 79.573C305.21 81.2963 306.843 82.8767 308.732 84.3297L313.61 77.9887ZM310.278 74.7745C309.462 73.6519 309.14 72.8569 309.037 72.3672L301.209 74.0152C301.618 75.9575 302.577 77.7865 303.808 79.4799L310.278 74.7745ZM306.858 76.7952L309.45 75.5472L305.98 68.3392L303.388 69.5872L306.858 76.7952ZM303.715 71.9432V98.7272H311.715V71.9432H303.715ZM303.715 98.7272C303.715 98.9706 303.675 99.0789 303.663 99.1087C303.653 99.1323 303.632 99.1785 303.546 99.259L309.004 105.107C310.838 103.396 311.715 101.154 311.715 98.7272H303.715ZM303.351 99.4539C303.252 99.5599 303.198 99.5819 303.188 99.5866C303.174 99.5922 303.102 99.6232 302.915 99.6232V107.623C305.338 107.623 307.527 106.704 309.199 104.912L303.351 99.4539ZM302.915 99.6232C302.672 99.6232 302.564 99.5833 302.534 99.5709C302.51 99.5611 302.464 99.5402 302.383 99.4539L296.535 104.912C298.247 106.746 300.488 107.623 302.915 107.623V99.6232ZM302.288 99.3548C302.228 99.2956 302.115 99.2035 302.115 98.7272H294.115C294.115 101.067 294.898 103.279 296.631 105.012L302.288 99.3548ZM302.115 98.7272V38.6312H294.115V98.7272H302.115ZM302.115 38.6312C302.115 38.274 302.197 38.1047 302.383 37.9045L296.535 32.4459C294.93 34.1657 294.115 36.3004 294.115 38.6312H302.115ZM302.383 37.9045C302.464 37.8182 302.51 37.7973 302.534 37.7875C302.564 37.7751 302.672 37.7352 302.915 37.7352V29.7352C300.488 29.7352 298.247 30.6121 296.535 32.4459L302.383 37.9045ZM302.915 37.7352C303.102 37.7352 303.174 37.7662 303.188 37.7718C303.198 37.7765 303.252 37.7985 303.351 37.9045L309.199 32.4459C307.527 30.6541 305.338 29.7352 302.915 29.7352V37.7352ZM303.447 38.0036C303.665 38.222 303.715 38.3601 303.715 38.6312H311.715C311.715 36.2143 310.805 34.0484 309.104 32.3468L303.447 38.0036ZM303.715 38.6312V45.2552H311.715V38.6312H303.715ZM309.676 41.7689L308.14 40.9049L304.218 47.8775L305.754 48.7415L309.676 41.7689ZM310.13 45.015C310.184 44.6759 310.398 44.0573 311.127 43.146L304.88 38.1484C303.561 39.7971 302.559 41.6745 302.228 43.7673L310.13 45.015ZM311.185 43.0714C311.957 42.0576 312.963 41.0634 314.243 40.1032L309.443 33.7032C307.652 35.047 306.097 36.5488 304.821 38.223L311.185 43.0714ZM314.18 40.1493C315.454 39.2327 316.905 38.475 318.557 37.8889L315.882 30.3495C313.565 31.1713 311.433 32.2697 309.506 33.6571L314.18 40.1493ZM318.52 37.9019C320.147 37.3425 321.82 37.0632 323.555 37.0632V29.0632C320.939 29.0632 318.387 29.4879 315.919 30.3364L318.52 37.9019ZM322.499 37.8952C318.727 37.8952 315.248 38.8497 312.216 40.871L316.654 47.5274C318.23 46.4767 320.127 45.8952 322.499 45.8952V37.8952ZM312.238 40.8564C309.369 42.7419 307.151 45.312 305.577 48.4583L312.733 52.0361C313.72 50.0624 315.021 48.6005 316.632 47.542L312.238 40.8564ZM305.577 48.4583C303.978 51.6575 303.235 55.2312 303.235 59.0792H311.235C311.235 56.2712 311.773 53.9568 312.733 52.0361L305.577 48.4583ZM303.235 59.0792C303.235 62.8801 303.984 66.4516 305.544 69.7269L312.767 66.2875C311.766 64.1867 311.235 61.8063 311.235 59.0792H303.235ZM305.56 69.7609C307.12 72.9585 309.32 75.5898 312.173 77.5461L316.697 70.9483C315.07 69.8326 313.75 68.3039 312.75 66.2535L305.56 69.7609ZM312.282 77.618C315.306 79.5503 318.761 80.4552 322.499 80.4552V72.4552C320.093 72.4552 318.172 71.8881 316.589 70.8764L312.282 77.618ZM322.499 80.4552C326.189 80.4552 329.598 79.5419 332.568 77.59L328.174 70.9044C326.665 71.8965 324.825 72.4552 322.499 72.4552V80.4552ZM332.633 77.5461C335.486 75.5898 337.686 72.9585 339.246 69.7609L332.056 66.2535C331.056 68.3039 329.736 69.8326 328.109 70.9483L332.633 77.5461ZM339.229 69.7961C340.874 66.5059 341.667 62.9097 341.667 59.0792H333.667C333.667 61.7767 333.116 64.1325 332.073 66.2183L339.229 69.7961ZM341.667 59.0792C341.667 55.2519 340.875 51.6878 339.193 48.4839L332.11 52.2025C333.116 54.1186 333.667 56.3785 333.667 59.0792H341.667ZM339.246 48.5895C337.68 45.3793 335.461 42.7577 332.568 40.8564L328.174 47.542C329.761 48.5847 331.062 50.0591 332.056 52.0969L339.246 48.5895ZM332.633 40.9003C329.656 38.859 326.224 37.8952 322.499 37.8952V45.8952C324.79 45.8952 326.606 46.4674 328.109 47.4981L332.633 40.9003ZM395.372 37.9272C395.559 37.9272 395.631 37.9582 395.645 37.9638C395.655 37.9685 395.709 37.9905 395.808 38.0965L401.656 32.6379C399.984 30.8461 397.795 29.9272 395.372 29.9272V37.9272ZM396.003 38.2914C396.089 38.3719 396.11 38.4181 396.12 38.4417C396.132 38.4715 396.172 38.5798 396.172 38.8232H404.172C404.172 36.3961 403.295 34.1545 401.461 32.443L396.003 38.2914ZM396.172 38.8232V64.0712H404.172V38.8232H396.172ZM396.172 64.0712C396.172 69.9617 394.551 74.0675 391.752 76.915L397.457 82.5233C402.081 77.8188 404.172 71.4927 404.172 64.0712H396.172ZM391.776 76.8908C389.015 79.651 384.907 81.2872 378.86 81.2872V89.2872C386.381 89.2872 392.769 87.2114 397.433 82.5476L391.776 76.8908ZM378.86 81.2872C372.89 81.2872 368.808 79.6579 366.041 76.8908L360.384 82.5476C365.041 87.2045 371.391 89.2872 378.86 89.2872V81.2872ZM366.089 76.9399C363.341 74.0953 361.74 69.9805 361.74 64.0712H353.74C353.74 71.4739 355.788 77.7911 360.335 82.4984L366.089 76.9399ZM361.74 64.0712V38.8232H353.74V64.0712H361.74ZM361.74 38.8232C361.74 38.3469 361.853 38.2548 361.913 38.1956L356.256 32.5388C354.523 34.2716 353.74 36.4835 353.74 38.8232H361.74ZM362.008 38.0965C362.089 38.0102 362.135 37.9893 362.159 37.9795C362.189 37.9671 362.297 37.9272 362.54 37.9272V29.9272C360.113 29.9272 357.872 30.8041 356.16 32.6379L362.008 38.0965ZM362.54 37.9272C362.727 37.9272 362.799 37.9582 362.813 37.9638C362.823 37.9685 362.877 37.9905 362.976 38.0965L368.824 32.6379C367.152 30.8461 364.963 29.9272 362.54 29.9272V37.9272ZM363.171 38.2914C363.257 38.3719 363.278 38.4181 363.288 38.4417C363.3 38.4715 363.34 38.5798 363.34 38.8232H371.34C371.34 36.3961 370.463 34.1545 368.629 32.443L363.171 38.2914ZM363.34 38.8232V64.0712H371.34V38.8232H363.34ZM363.34 64.0712C363.34 68.7658 364.416 73.0403 367.302 76.119L373.138 70.6474C372.185 69.6301 371.34 67.6966 371.34 64.0712H363.34ZM367.347 76.1664C370.306 79.2204 374.367 80.4552 378.86 80.4552V72.4552C375.802 72.4552 374.103 71.642 373.093 70.6L367.347 76.1664ZM378.86 80.4552C383.395 80.4552 387.499 79.2328 390.469 76.1664L384.723 70.6C383.726 71.6296 382.006 72.4552 378.86 72.4552V80.4552ZM390.469 76.1664C393.45 73.0898 394.572 68.796 394.572 64.0712H386.572C386.572 67.6664 385.711 69.5806 384.723 70.6L390.469 76.1664ZM394.572 64.0712V38.8232H386.572V64.0712H394.572ZM394.572 38.8232C394.572 38.3469 394.685 38.2548 394.745 38.1956L389.088 32.5388C387.355 34.2716 386.572 36.4835 386.572 38.8232H394.572ZM394.84 38.0965C394.921 38.0102 394.967 37.9893 394.991 37.9795C395.021 37.9671 395.129 37.9272 395.372 37.9272V29.9272C392.945 29.9272 390.704 30.8041 388.992 32.6379L394.84 38.0965ZM412.849 38.5032H435.409V30.5032H412.849V38.5032ZM435.409 38.5032C435.496 38.5032 435.548 38.5107 435.574 38.5156C435.599 38.5203 435.605 38.5239 435.599 38.5215C435.593 38.519 435.59 38.5164 435.592 38.5179C435.594 38.5197 435.613 38.5333 435.646 38.569L441.509 33.1254C439.881 31.3723 437.743 30.5032 435.409 30.5032V38.5032ZM435.856 38.7784C435.891 38.8115 435.905 38.8303 435.907 38.8329C435.908 38.8349 435.906 38.8312 435.903 38.8254C435.901 38.8199 435.904 38.8259 435.909 38.8506C435.914 38.8763 435.921 38.929 435.921 39.0152H443.921C443.921 36.6817 443.052 34.5439 441.299 32.916L435.856 38.7784ZM435.921 39.0152C435.921 39.0727 435.916 39.1011 435.915 39.1067C435.914 39.1115 435.915 39.1045 435.921 39.0919C435.926 39.0793 435.93 39.075 435.926 39.0812C435.921 39.0881 435.901 39.1139 435.856 39.156L441.299 45.0184C443.005 43.4343 443.921 41.3504 443.921 39.0152H435.921ZM435.749 39.2588C435.723 39.2843 435.709 39.2942 435.706 39.2963C435.703 39.2982 435.701 39.2994 435.695 39.3016C435.69 39.3036 435.611 39.3352 435.409 39.3352V47.3352C437.648 47.3352 439.754 46.5674 441.406 44.9156L435.749 39.2588ZM435.409 39.3352H412.849V47.3352H435.409V39.3352ZM412.849 39.3352C412.527 39.3352 412.426 39.2664 412.307 39.156L406.864 45.0184C408.537 46.572 410.612 47.3352 412.849 47.3352V39.3352ZM412.517 39.3654C412.367 39.2047 412.337 39.1194 412.337 38.9192H404.337C404.337 41.151 405.139 43.1777 406.654 44.809L412.517 39.3654ZM412.337 38.9192C412.337 38.7173 412.369 38.6385 412.371 38.6333C412.373 38.6278 412.374 38.6258 412.376 38.6229C412.378 38.6198 412.388 38.6052 412.414 38.5796L406.757 32.9228C405.105 34.5746 404.337 36.681 404.337 38.9192H412.337ZM412.307 38.6824C412.426 38.572 412.527 38.5032 412.849 38.5032V30.5032C410.612 30.5032 408.537 31.2664 406.864 32.82L412.307 38.6824ZM422.929 26.0232C423.173 26.0232 423.281 26.0631 423.311 26.0755C423.335 26.0853 423.381 26.1062 423.461 26.1925L429.31 20.7339C427.598 18.9001 425.357 18.0232 422.929 18.0232V26.0232ZM423.557 26.2916C423.616 26.3508 423.729 26.4429 423.729 26.9192H431.729C431.729 24.5795 430.947 22.3676 429.214 20.6348L423.557 26.2916ZM423.729 26.9192V71.4632H431.729V26.9192H423.729ZM423.729 71.4632C423.729 73.0108 423.98 74.6703 424.794 76.1626L431.817 72.3318C431.845 72.3823 431.821 72.3586 431.79 72.2128C431.76 72.0651 431.729 71.8229 431.729 71.4632H423.729ZM424.794 76.1626C425.547 77.5432 426.714 78.7445 428.356 79.4011L431.327 71.9733C431.478 72.0338 431.612 72.1226 431.713 72.217C431.808 72.3061 431.834 72.3628 431.817 72.3318L424.794 76.1626ZM428.474 79.4464C429.588 79.8514 430.754 80.0712 431.953 80.0712V72.0712C431.745 72.0712 431.503 72.035 431.208 71.928L428.474 79.4464ZM431.953 80.0712C433.138 80.0712 434.386 79.8552 435.566 79.2649L431.989 72.1095C432.025 72.0913 432.056 72.0791 432.078 72.0714C432.101 72.0637 432.113 72.0611 432.113 72.061C432.114 72.0609 432.101 72.0635 432.075 72.0661C432.049 72.0687 432.008 72.0712 431.953 72.0712V80.0712ZM435.402 79.3424C435.368 79.3577 435.466 79.3032 435.793 79.3032V71.3032C434.585 71.3032 433.339 71.5047 432.153 72.0319L435.402 79.3424ZM435.793 79.3032C435.541 79.3032 435.298 79.2395 435.109 79.1449C434.937 79.0592 434.89 78.9891 434.946 79.0499L440.865 73.6685C439.662 72.3449 437.949 71.3032 435.793 71.3032V79.3032ZM434.946 79.0499C434.911 79.012 434.882 78.9717 434.861 78.9341C434.839 78.8971 434.831 78.8737 434.831 78.8721C434.831 78.8715 434.865 78.9771 434.865 79.2392H442.865C442.865 77.3141 442.345 75.2961 440.865 73.6685L434.946 79.0499ZM434.865 79.2392C434.865 79.2575 434.864 79.2362 434.877 79.1918C434.89 79.1467 434.908 79.1164 434.913 79.1084C434.921 79.0973 434.814 79.2624 434.371 79.5185L438.368 86.4479C440.909 84.9822 442.865 82.5781 442.865 79.2392H434.865ZM434.371 79.5185C433.314 80.128 432.211 80.4232 430.993 80.4232V88.4232C433.616 88.4232 436.097 87.7584 438.368 86.4479L434.371 79.5185ZM430.993 80.4232C430.128 80.4232 429.028 80.3459 427.671 80.1688L426.636 88.1016C428.223 88.3085 429.683 88.4232 430.993 88.4232V80.4232ZM427.671 80.1688C426.727 80.0457 425.758 79.7341 424.749 79.1836L420.918 86.2068C422.725 87.1923 424.636 87.8407 426.636 88.1016L427.671 80.1688ZM424.818 79.2222C424.254 78.9 423.615 78.3018 422.995 77.1508L415.952 80.9436C417.124 83.1206 418.725 84.9544 420.849 86.1682L424.818 79.2222ZM423.024 77.2059C422.546 76.2832 422.129 74.6117 422.129 71.8472H414.129C414.129 75.2267 414.609 78.3552 415.922 80.8885L423.024 77.2059ZM422.129 71.8472V26.9192H414.129V71.8472H422.129ZM422.129 26.9192C422.129 26.4429 422.243 26.3508 422.302 26.2916L416.645 20.6348C414.912 22.3676 414.129 24.5795 414.129 26.9192H422.129ZM422.302 26.2916C422.52 26.0732 422.658 26.0232 422.929 26.0232V18.0232C420.513 18.0232 418.347 18.9332 416.645 20.6348L422.302 26.2916Z" fill="#AB3E16" style="fill:#AB3E16;fill:color(display-p3 0.6706 0.2431 0.0863);fill-opacity:1;" mask="url(#path-3-outside-1_1_32)"/>
<g opacity="0.2" filter="url(#filter0_d_1_32)">
<mask id="path-5-inside-2_1_32" fill="white">
<path fill-rule="evenodd" clip-rule="evenodd" d="M111.21 57.2749L104.836 82.7715C103.035 89.9758 98.4458 96.1696 92.078 99.9903L81.9684 106.056C75.6006 109.877 67.9758 111.011 60.7715 109.21L35.2749 102.836C28.0705 101.035 21.8767 96.4458 18.0561 90.078L11.9903 79.9684C8.16961 73.6006 7.03501 65.9758 8.83609 58.7715L15.2102 33.2749C17.0113 26.0705 21.6006 19.8767 27.9684 16.0561L38.078 9.99028C44.4458 6.16961 52.0705 5.03501 59.2749 6.83609L84.7715 13.2102C91.9758 15.0113 98.1696 19.6006 101.99 25.9684L108.056 36.078C111.877 42.4458 113.011 50.0705 111.21 57.2749ZM51.9038 38.9934L76.1427 45.0531C78.2859 45.5889 79.5889 47.7606 79.0531 49.9038L72.9934 74.1427C72.4576 76.2859 70.2859 77.5889 68.1427 77.0531L43.9038 70.9934C41.7606 70.4576 40.4576 68.2859 40.9934 66.1427L47.0531 41.9038C47.5889 39.7606 49.7606 38.4576 51.9038 38.9934Z"/>
</mask>
<path d="M104.836 82.7715L100.956 81.8013L100.956 81.8013L104.836 82.7715ZM111.21 57.2749L115.091 58.245L115.091 58.245L111.21 57.2749ZM81.9684 106.056L79.9104 102.626L79.9104 102.626L81.9684 106.056ZM60.7715 109.21L59.8013 113.091L59.8013 113.091L60.7715 109.21ZM35.2749 102.836L36.245 98.9555L36.245 98.9555L35.2749 102.836ZM18.0561 90.078L14.6261 92.136L14.6261 92.136L18.0561 90.078ZM11.9903 79.9684L15.4203 77.9104L15.4203 77.9104L11.9903 79.9684ZM8.83609 58.7715L4.95552 57.8013L4.95552 57.8013L8.83609 58.7715ZM15.2102 33.2749L19.0908 34.245L19.0908 34.245L15.2102 33.2749ZM27.9684 16.0561L30.0263 19.486L27.9684 16.0561ZM38.078 9.99028L36.02 6.56031L36.02 6.56031L38.078 9.99028ZM59.2749 6.83609L60.245 2.95552L60.245 2.95552L59.2749 6.83609ZM84.7715 13.2102L83.8013 17.0908L83.8013 17.0908L84.7715 13.2102ZM101.99 25.9684L98.5603 28.0263L98.5603 28.0263L101.99 25.9684ZM108.056 36.078L111.486 34.02L111.486 34.02L108.056 36.078ZM76.1427 45.0531L77.1128 41.1725L77.1128 41.1725L76.1427 45.0531ZM51.9038 38.9934L52.874 35.1128L52.874 35.1128L51.9038 38.9934ZM79.0531 49.9038L82.9337 50.874L82.9337 50.874L79.0531 49.9038ZM72.9934 74.1427L76.874 75.1128L76.874 75.1128L72.9934 74.1427ZM68.1427 77.0531L67.1725 80.9337L67.1725 80.9337L68.1427 77.0531ZM43.9038 70.9934L42.9337 74.874L42.9337 74.874L43.9038 70.9934ZM40.9934 66.1427L37.1128 65.1725L37.1128 65.1725L40.9934 66.1427ZM47.0531 41.9038L50.9337 42.874L50.9337 42.874L47.0531 41.9038ZM108.717 83.7416L115.091 58.245L107.33 56.3047L100.956 81.8013L108.717 83.7416ZM94.136 103.42C101.413 99.0538 106.658 91.9752 108.717 83.7416L100.956 81.8013C99.4117 87.9765 95.4781 93.2854 90.02 96.5603L94.136 103.42ZM84.0263 109.486L94.136 103.42L90.02 96.5603L79.9104 102.626L84.0263 109.486ZM59.8013 113.091C68.0349 115.149 76.7489 113.853 84.0263 109.486L79.9104 102.626C74.4523 105.901 67.9168 106.873 61.7416 105.33L59.8013 113.091ZM34.3047 106.717L59.8013 113.091L61.7416 105.33L36.245 98.9555L34.3047 106.717ZM14.6261 92.136C18.9926 99.4135 26.0712 104.658 34.3047 106.717L36.245 98.9555C30.0699 97.4117 24.7609 93.4781 21.486 88.02L14.6261 92.136ZM8.56031 82.0263L14.6261 92.136L21.486 88.02L15.4203 77.9104L8.56031 82.0263ZM4.95552 57.8013C2.89714 66.0349 4.19382 74.7489 8.56031 82.0263L15.4203 77.9104C12.1454 72.4523 11.1729 65.9168 12.7167 59.7416L4.95552 57.8013ZM11.3297 32.3047L4.95552 57.8013L12.7167 59.7416L19.0908 34.245L11.3297 32.3047ZM25.9104 12.6261C18.6329 16.9926 13.3881 24.0712 11.3297 32.3047L19.0908 34.245C20.6346 28.0699 24.5682 22.7609 30.0263 19.486L25.9104 12.6261ZM36.02 6.56031L25.9104 12.6261L30.0263 19.486L40.136 13.4203L36.02 6.56031ZM60.245 2.95552C52.0115 0.897142 43.2975 2.19382 36.02 6.56031L40.136 13.4203C45.5941 10.1454 52.1296 9.17288 58.3047 10.7167L60.245 2.95552ZM85.7416 9.32968L60.245 2.95552L58.3047 10.7167L83.8013 17.0908L85.7416 9.32968ZM105.42 23.9104C101.054 16.6329 93.9752 11.3881 85.7416 9.32968L83.8013 17.0908C89.9765 18.6346 95.2854 22.5682 98.5603 28.0263L105.42 23.9104ZM111.486 34.02L105.42 23.9104L98.5603 28.0263L104.626 38.136L111.486 34.02ZM115.091 58.245C117.149 50.0115 115.853 41.2975 111.486 34.02L104.626 38.136C107.901 43.5941 108.873 50.1296 107.33 56.3047L115.091 58.245ZM77.1128 41.1725L52.874 35.1128L50.9337 42.874L75.1725 48.9337L77.1128 41.1725ZM82.9337 50.874C84.0053 46.5876 81.3992 42.2441 77.1128 41.1725L75.1725 48.9337L75.1725 48.9337L82.9337 50.874ZM76.874 75.1128L82.9337 50.874L75.1725 48.9337L69.1128 73.1725L76.874 75.1128ZM67.1725 80.9337C71.4589 82.0053 75.8024 79.3992 76.874 75.1128L69.1128 73.1725L69.1128 73.1725L67.1725 80.9337ZM42.9337 74.874L67.1725 80.9337L69.1128 73.1725L44.874 67.1128L42.9337 74.874ZM37.1128 65.1725C36.0412 69.4589 38.6473 73.8024 42.9337 74.874L44.874 67.1128L44.874 67.1128L37.1128 65.1725ZM43.1725 40.9337L37.1128 65.1725L44.874 67.1128L50.9337 42.874L43.1725 40.9337ZM52.874 35.1128C48.5876 34.0412 44.2441 36.6473 43.1725 40.9337L50.9337 42.874L50.9337 42.874L52.874 35.1128Z" fill="black" style="fill:black;fill-opacity:1;" mask="url(#path-5-inside-2_1_32)"/>
</g>
<defs>
<filter id="filter0_d_1_32" x="0" y="0" width="120.046" height="120.046" filterUnits="userSpaceOnUse" color-interpolation-filters="sRGB">
<feFlood flood-opacity="0" result="BackgroundImageFix"/>
<feColorMatrix in="SourceAlpha" type="matrix" values="0 0 0 0 0 0 0 0 0 0 0 0 0 0 0 0 0 0 127 0" result="hardAlpha"/>
<feOffset dy="2"/>
<feGaussianBlur stdDeviation="4"/>
<feComposite in2="hardAlpha" operator="out"/>
<feColorMatrix type="matrix" values="0 0 0 0 0 0 0 0 0 0 0 0 0 0 0 0 0 0 0.25 0"/>
<feBlend mode="normal" in2="BackgroundImageFix" result="effect1_dropShadow_1_32"/>
<feBlend mode="normal" in="SourceGraphic" in2="effect1_dropShadow_1_32" result="shape"/>
</filter>
<linearGradient id="paint0_linear_1_32" x1="72.7003" y1="11.2075" x2="49.6075" y2="105.006" gradientUnits="userSpaceOnUse">
<stop stop-color="#EC5500" style="stop-color:#EC5500;stop-color:color(display-p3 0.9250 0.3330 0.0000);stop-opacity:1;"/>
<stop offset="1" stop-color="#D14B20" style="stop-color:#D14B20;stop-color:color(display-p3 0.8208 0.2932 0.1265);stop-opacity:1;"/>
</linearGradient>
<linearGradient id="paint1_linear_1_32" x1="72.0232" y1="10.0232" x2="48.0232" y2="106.023" gradientUnits="userSpaceOnUse">
<stop stop-color="white" style="stop-color:white;stop-opacity:1;"/>
<stop offset="1" stop-color="#D7E8DF" style="stop-color:#D7E8DF;stop-color:color(display-p3 0.8440 0.9083 0.8736);stop-opacity:1;"/>
</linearGradient>
</defs>
</svg>
